<?xml version="1.0" encoding="UTF-8" standalone="no"?><!DOCTYPE svg PUBLIC "-//W3C//DTD SVG 1.1//EN" "http://www.w3.org/Graphics/SVG/1.1/DTD/svg11.dtd"><svg width="100%" height="100%" viewBox="0 0 1001 431" version="1.1" xmlns="http://www.w3.org/2000/svg" xmlns:xlink="http://www.w3.org/1999/xlink" xml:space="preserve" style="fill-rule:evenodd;clip-rule:evenodd;stroke-linejoin:round;stroke-miterlimit:1.41421;"><g><rect x="0" y="0.135" width="983.623" height="430.865" style="fill:#fff;fill-rule:nonzero;"/><path d="M102.361,203.618c-55.628,-0.006 -100.722,-45.096 -100.731,-100.728c0,-55.632 45.09,-100.727 100.73,-100.727l0.001,0l0,13.213c-48.32,0.01 -87.502,39.175 -87.513,87.514c0,48.318 39.199,87.51 87.51,87.51l0.003,13.218Z" style="fill:#00a4e4;fill-rule:nonzero;"/><clipPath id="_clip1"><rect x="102.361" y="1.141" width="100.733" height="202.477"/></clipPath><g clip-path="url(#_clip1)"><clipPath id="_clip2"><path d="M102.375,203.618c-0.003,0 -0.011,0 -0.014,0l0,-13.218c48.336,0 87.507,-39.192 87.507,-87.51c0,-48.345 -39.182,-87.514 -87.493,-87.514c-0.006,0 -0.008,0 -0.014,0l0,-13.213c0.007,0 0.007,0 0.014,0c55.623,0 100.727,45.104 100.719,100.727c0,55.619 -45.096,100.728 -100.719,100.728Z"/></clipPath><g clip-path="url(#_clip2)"><rect x="102.361" y="2.163" width="100.733" height="201.455" style="fill:url(#_Linear3);fill-rule:nonzero;"/></g></g><path d="M271.215,222.326c0,-9.397 -0.732,-19.893 -6.956,-26.118c-3.418,-3.417 -8.788,-5.492 -15.012,-5.492c-6.591,0 -11.717,1.587 -16.233,6.957l0,-31.245l-12.449,0l0,86.898l12.205,0l0,-6.59c4.638,5.614 9.642,7.323 16.355,7.323c6.224,0 11.716,-2.075 15.134,-5.492c6.224,-6.225 6.956,-16.843 6.956,-26.241Zm-12.449,0c0,10.985 -1.586,20.626 -12.815,20.626c-11.228,0 -12.937,-9.641 -12.937,-20.626c0,-10.984 1.709,-20.504 12.937,-20.504c11.229,0 12.815,9.52 12.815,20.504Z" style="fill:#00a4e4;fill-rule:nonzero;"/><path d="M326.466,196.574c-4.272,-4.271 -8.788,-5.858 -14.768,-5.858c-6.957,0 -13.303,3.051 -16.477,7.445l0,-6.713l-12.204,0l0,61.879l12.448,0l0,-37.591c0,-8.544 5.615,-13.914 12.327,-13.914c4.272,0 6.469,1.343 9.276,4.15l9.398,-9.398Z" style="fill:#00a4e4;fill-rule:nonzero;"/><path d="M380.605,225.988l0,-5.492c0,-17.575 -9.642,-29.78 -26.24,-29.78c-15.866,0 -26.24,11.595 -26.24,31.61c0,23.556 12.326,31.733 27.827,31.733c10.862,0 16.842,-3.295 23.189,-9.642l-7.933,-7.445c-4.394,4.394 -8.056,6.347 -15.012,6.347c-10.13,0 -15.745,-6.713 -15.745,-17.331l40.154,0Zm-12.327,-8.666l-27.827,0c0.123,-3.783 0.367,-5.614 1.587,-8.421c1.953,-4.638 6.469,-7.811 12.327,-7.811c5.858,0 10.252,3.173 12.205,7.811c1.22,2.807 1.586,4.638 1.708,8.421Z" style="fill:#00a4e4;fill-rule:nonzero;"/><path d="M479.425,253.327l0,-39.544c0,-6.957 -1.83,-12.815 -6.59,-17.453c-3.662,-3.539 -9.276,-5.614 -15.622,-5.614c-8.178,0 -14.402,2.929 -19.406,9.032c-3.906,-5.981 -9.886,-9.032 -17.575,-9.032c-6.224,0 -12.327,2.441 -16.476,6.957l0,-6.225l-12.205,0l0,61.879l12.449,0l0,-37.713c0,-9.52 5.858,-13.792 12.815,-13.792c6.956,0 12.449,4.15 12.449,13.792l0,37.713l12.448,0l0,-38.323c0,-8.91 6.103,-13.182 12.816,-13.182c6.956,0 12.448,4.15 12.448,13.792l0,37.713l12.449,0Z" style="fill:#00a4e4;fill-rule:nonzero;"/><path d="M542.56,225.988l0,-5.492c0,-17.575 -9.642,-29.78 -26.24,-29.78c-15.866,0 -26.24,11.595 -26.24,31.61c0,23.556 12.326,31.733 27.827,31.733c10.862,0 16.842,-3.295 23.189,-9.642l-7.933,-7.445c-4.394,4.394 -8.056,6.347 -15.012,6.347c-10.13,0 -15.745,-6.713 -15.745,-17.331l40.154,0Zm-12.327,-8.666l-27.827,0c0.122,-3.783 0.367,-5.614 1.587,-8.421c1.953,-4.638 6.469,-7.811 12.327,-7.811c5.858,0 10.252,3.173 12.205,7.811c1.22,2.807 1.586,4.638 1.708,8.421Z" style="fill:#00a4e4;fill-rule:nonzero;"/><path d="M603.667,253.327l0,-39.544c0,-6.957 -1.464,-12.815 -6.224,-17.453c-3.661,-3.539 -8.909,-5.614 -15.256,-5.614c-6.224,0 -12.205,2.319 -16.476,6.957l0,-6.225l-12.205,0l0,61.879l12.449,0l0,-37.713c0,-9.52 5.858,-13.792 12.815,-13.792c6.956,0 12.449,4.15 12.449,13.792l0,37.713l12.448,0Z" style="fill:#00a4e4;fill-rule:nonzero;"/><path d="M281.58,397.279l0,-106.95l-15.322,0l0,38.454c-5.558,-6.609 -11.867,-8.562 -19.978,-8.562c-7.661,0 -14.27,2.553 -18.476,6.759c-7.661,7.661 -8.562,20.579 -8.562,32.146c0,11.566 0.901,24.634 8.562,32.295c4.206,4.206 10.965,6.76 18.626,6.76c8.262,0 14.42,-2.103 20.128,-9.013l0,8.111l15.022,0Zm-15.322,-38.153c0,13.519 -1.953,25.385 -15.772,25.385c-13.82,0 -15.923,-11.866 -15.923,-25.385c0,-13.519 2.103,-25.236 15.923,-25.236c13.819,0 15.772,11.717 15.772,25.236Z" style="fill:#00a4e4;fill-rule:nonzero;"/><path d="M316.804,306.101l0,-16.223l-16.223,0l0,16.223l16.223,0Zm-0.451,91.178l0,-76.157l-15.322,0l0,76.157l15.322,0Z" style="fill:#00a4e4;fill-rule:nonzero;"/><path d="M394.342,396.829l0,-75.707l-14.871,0l0,8.112c-5.708,-6.91 -11.867,-9.013 -19.978,-9.013c-7.661,0 -14.12,2.403 -18.326,6.609c-7.36,7.361 -8.562,18.026 -8.562,30.944c0,12.918 1.202,23.583 8.562,30.943c4.206,4.206 10.515,6.76 18.176,6.76c7.811,0 14.12,-2.103 19.677,-8.712l0,9.763c0,10.215 -4.957,19.378 -17.875,19.378c-7.51,0 -11.716,-2.253 -16.523,-6.76l-9.764,9.764c7.961,7.36 15.322,10.064 26.888,10.064c20.279,0 32.596,-13.519 32.596,-32.145Zm-15.322,-39.055c0,12.017 -1.652,23.883 -15.471,23.883c-13.82,0 -15.622,-11.866 -15.622,-23.883c0,-12.017 1.802,-23.884 15.622,-23.884c13.819,0 15.471,11.867 15.471,23.884Z" style="fill:#00a4e4;fill-rule:nonzero;"/><path d="M429.566,306.101l0,-16.223l-16.223,0l0,16.223l16.223,0Zm-0.451,91.178l0,-76.157l-15.321,0l0,76.157l15.321,0Z" style="fill:#373a3e;fill-rule:nonzero;"/><path d="M481.027,397.279l0,-13.068l-6.309,0c-5.708,0 -8.411,-3.305 -8.411,-8.862l0,-41.158l14.72,0l0,-11.717l-14.72,0l0,-23.133l-15.322,0l0,23.133l-8.712,0l0,11.717l8.712,0l0,41.909c0,10.965 6.609,21.179 20.879,21.179l9.163,0Z" style="fill:#373a3e;fill-rule:nonzero;"/><path d="M553.805,397.279l0,-50.921c0,-17.275 -10.515,-26.137 -31.395,-26.137c-12.617,0 -20.128,2.553 -27.338,10.965l10.064,9.464c4.206,-5.408 8.262,-7.361 16.674,-7.361c11.866,0 16.673,4.657 16.673,14.27l0,5.408l-20.128,0c-17.425,0 -26.287,9.163 -26.287,21.931c0,6.459 2.103,12.317 6.008,16.373c4.657,4.657 10.966,6.91 20.429,6.91c9.463,0 14.721,-2.253 20.279,-7.811l0,6.909l15.021,0Zm-15.322,-27.488c0,5.407 -1.051,9.012 -3.305,11.266c-4.055,3.905 -8.411,4.356 -14.27,4.356c-9.613,0 -13.969,-3.906 -13.969,-10.815c0,-6.91 4.656,-10.966 13.669,-10.966l17.875,0l0,6.159Z" style="fill:#00a4e4;fill-rule:nonzero;"/><path d="M602.609,397.279l0,-13.068l-6.76,0c-6.158,0 -8.261,-3.004 -8.261,-8.862l0,-85.02l-15.322,0l0,85.921c0,11.266 6.309,21.029 20.879,21.029l9.464,0Z" style="fill:#00a4e4;fill-rule:nonzero;"/><path d="M723.632,397.279l0,-48.668c0,-8.562 -2.253,-15.772 -8.111,-21.48c-4.507,-4.357 -11.416,-6.91 -19.227,-6.91c-10.065,0 -17.725,3.605 -23.884,11.115c-4.807,-7.36 -12.167,-11.115 -21.631,-11.115c-7.66,0 -15.171,3.004 -20.278,8.562l0,-7.661l-15.021,0l0,76.157l15.321,0l0,-46.415c0,-11.716 7.21,-16.974 15.773,-16.974c8.562,0 15.321,5.107 15.321,16.974l0,46.415l15.322,0l0,-47.166c0,-10.965 7.51,-16.223 15.772,-16.223c8.562,0 15.322,5.107 15.322,16.974l0,46.415l15.321,0Z" style="fill:#37393c;fill-rule:nonzero;"/><path d="M803.59,363.632l0,-6.759c0,-21.631 -11.866,-36.652 -32.295,-36.652c-19.528,0 -32.296,14.27 -32.296,38.905c0,28.991 15.172,39.055 34.249,39.055c13.368,0 20.729,-4.056 28.54,-11.867l-9.764,-9.163c-5.408,5.408 -9.914,7.811 -18.476,7.811c-12.468,0 -19.377,-8.262 -19.377,-21.33l49.419,0Zm-15.171,-10.665l-34.248,0c0.15,-4.657 0.45,-6.91 1.952,-10.365c2.404,-5.708 7.962,-9.613 15.172,-9.613c7.21,0 12.618,3.905 15.021,9.613c1.502,3.455 1.953,5.708 2.103,10.365Z" style="fill:#37393c;fill-rule:nonzero;"/><path d="M878.905,397.279l0,-106.95l-15.321,0l0,38.454c-5.558,-6.609 -11.867,-8.562 -19.979,-8.562c-7.66,0 -14.27,2.553 -18.476,6.759c-7.66,7.661 -8.562,20.579 -8.562,32.146c0,11.566 0.902,24.634 8.562,32.295c4.206,4.206 10.966,6.76 18.627,6.76c8.261,0 14.42,-2.103 20.128,-9.013l0,8.111l15.021,0Zm-15.321,-38.153c0,13.519 -1.953,25.385 -15.773,25.385c-13.819,0 -15.922,-11.866 -15.922,-25.385c0,-13.519 2.103,-25.236 15.922,-25.236c13.82,0 15.773,11.717 15.773,25.236Z" style="fill:#37393c;fill-rule:nonzero;"/><path d="M914.129,306.101l0,-16.223l-16.223,0l0,16.223l16.223,0Zm-0.45,91.178l0,-76.157l-15.322,0l0,76.157l15.322,0Z" style="fill:#37393c;fill-rule:nonzero;"/><path d="M989.354,397.279l0,-50.921c0,-17.275 -10.515,-26.137 -31.394,-26.137c-12.618,0 -20.129,2.553 -27.339,10.965l10.064,9.464c4.206,-5.408 8.262,-7.361 16.674,-7.361c11.866,0 16.673,4.657 16.673,14.27l0,5.408l-20.128,0c-17.425,0 -26.287,9.163 -26.287,21.931c0,6.459 2.103,12.317 6.008,16.373c4.657,4.657 10.966,6.91 20.429,6.91c9.463,0 14.721,-2.253 20.279,-7.811l0,6.909l15.021,0Zm-15.322,-27.488c0,5.407 -1.051,9.012 -3.304,11.266c-4.056,3.905 -8.412,4.356 -14.271,4.356c-9.613,0 -13.969,-3.906 -13.969,-10.815c0,-6.91 4.656,-10.966 13.669,-10.966l17.875,0l0,6.159Z" style="fill:#37393c;fill-rule:nonzero;"/></g><defs><linearGradient id="_Linear3" x1="0" y1="0" x2="1" y2="0" gradientUnits="userSpaceOnUse" gradientTransform="matrix(-8.85054e-06,-202.477,202.477,-8.85054e-06,152.727,203.617)"><stop offset="0%" style="stop-color:#00a4e4;stop-opacity:1"/><stop offset="10%" style="stop-color:#00b2ef;stop-opacity:1"/><stop offset="10%" style="stop-color:#00b2ef;stop-opacity:1"/><stop offset="80%" style="stop-color:#97daf1;stop-opacity:1"/><stop offset="80%" style="stop-color:#97daf1;stop-opacity:1"/><stop offset="100%" style="stop-color:#d8f0fb;stop-opacity:1"/><stop offset="100%" style="stop-color:#d8f0fb;stop-opacity:1"/></linearGradient></defs></svg>