<?xml version="1.0" encoding="utf-8"?>
<!-- Generated by IcoMoon.io -->
<!DOCTYPE svg PUBLIC "-//W3C//DTD SVG 1.1//EN" "http://www.w3.org/Graphics/SVG/1.1/DTD/svg11.dtd">
<svg version="1.1" xmlns="http://www.w3.org/2000/svg" xmlns:xlink="http://www.w3.org/1999/xlink" width="30" height="32" viewBox="0 0 30 32">
<path fill="#000000" d="M13.125 14.214q0 0.642 0.571 1.259t1.384 1.214 1.616 1.312 1.375 1.857 0.571 2.536q0 1.607-0.857 3.089-1.286 2.178-3.768 3.206t-5.321 1.026q-2.358 0-4.402-0.741t-3.063-2.455q-0.661-1.072-0.661-2.339 0-1.447 0.794-2.679t2.117-2.054q2.339-1.464 7.214-1.786-0.571-0.75-0.848-1.321t-0.277-1.304q0-0.642 0.375-1.518-0.822 0.072-1.214 0.072-2.642 0-4.455-1.723t-1.813-4.366q0-1.464 0.642-2.839t1.768-2.339q1.375-1.178 3.259-1.75t3.883-0.571h7.464l-2.464 1.571h-2.339q1.321 1.125 2 2.375t0.679 2.857q0 1.286-0.438 2.312t-1.054 1.661-1.241 1.161-1.063 1.098-0.438 1.178zM10.518 12.501q0.679 0 1.393-0.295t1.178-0.777q0.946-1.018 0.946-2.839 0-1.035-0.304-2.232t-0.866-2.312-1.509-1.848-2.089-0.733q-0.75 0-1.473 0.349t-1.169 0.937q-0.839 1.054-0.839 2.857 0 0.822 0.178 1.741t0.562 1.839 0.928 1.651 1.339 1.197 1.723 0.464zM10.553 28.089q1.035 0 1.991-0.232t1.768-0.696 1.304-1.304 0.491-1.946q0-0.447-0.125-0.875t-0.259-0.75-0.482-0.741-0.527-0.625-0.688-0.616-0.651-0.518-0.741-0.536-0.651-0.464q-0.286-0.035-0.857-0.035-0.946 0-1.875 0.125t-1.92 0.447-1.733 0.822-1.223 1.33-0.482 1.883q0 1.25 0.625 2.206t1.634 1.482 2.125 0.786 2.277 0.259zM25.018 12.447h3.803v1.928h-3.803v3.911h-1.875v-3.911h-3.786v-1.928h3.786v-3.875h1.875v3.875z"></path>
</svg>
