<?xml version="1.0" encoding="utf-8"?>
<!-- Generated by IcoMoon.io -->
<!DOCTYPE svg PUBLIC "-//W3C//DTD SVG 1.1//EN" "http://www.w3.org/Graphics/SVG/1.1/DTD/svg11.dtd">
<svg version="1.1" xmlns="http://www.w3.org/2000/svg" xmlns:xlink="http://www.w3.org/1999/xlink" width="32" height="32" viewBox="0 0 32 32">
<path fill="rgb(68, 68, 68)" d="M14.263 18.286c0 0.823-0.64 1.463-1.371 1.463-0.823 0-1.371-0.64-1.371-1.463s0.64-1.463 1.371-1.463c0.823 0 1.371 0.64 1.371 1.463v0zM20.023 16.823c-0.823 0-1.371 0.64-1.371 1.463s0.64 1.463 1.371 1.463c0.823 0 1.371-0.64 1.371-1.463s-0.64-1.463-1.371-1.463v0zM30.171 16.549v2.743c0 1.371-1.097 2.469-2.469 2.469h-1.737c-1.737 4.937-6.217 8.869-9.509 8.869s-7.771-3.931-9.509-8.869h-1.737c-1.371 0-2.469-1.097-2.469-2.469v-2.743c0-0.914 0.549-1.737 1.28-2.194 0-3.84 1.097-7.771 3.291-9.874 2.103-2.103 5.211-3.109 9.143-3.109s7.040 1.006 9.143 3.109c2.194 2.103 3.291 6.034 3.291 9.874 0.731 0.457 1.28 1.28 1.28 2.194v0zM25.051 17.371c0-0.64-0.274-1.28-0.091-1.829-0.914-1.829-3.017-3.566-5.486-3.84 0.366 0.366 0.64 0.823 0.731 1.463-1.554-1.189-4.48-0.914-6.766-3.657-0.091-0.183-0.274 1.554-0.366 1.371 0 0 0 0 0 0v-1.829c-0.366-0.549-0.549-0.914-0.549-0.549-0.091 3.109-2.926 6.4-4.663 7.771 0.183 0.274 0 0.731 0 1.097 0 1.28 0.183 2.56 0.549 3.657 1.371 1.646 3.566 3.017 5.577 3.2 0.366-0.64 1.189-1.006 2.194-1.006 1.28 0 2.377 0.731 2.377 1.737s-1.097 1.737-2.377 1.737c-1.006 0-1.829-0.457-2.194-1.097-1.371-0.091-3.017-0.64-4.297-1.92 1.463 2.743 4.846 5.303 6.766 5.303 2.926-0.091 8.594-4.754 8.594-11.611v0zM27.429 14.080c-0.183-6.766-3.931-11.246-10.971-11.246s-10.789 4.48-10.971 11.246h0.914c0.366-2.286 1.097-4.114 2.194-5.577 1.737-2.286 4.389-3.474 7.863-3.474s6.126 1.189 7.863 3.474c1.097 1.463 1.829 3.291 2.194 5.577h0.914z"></path>
</svg>
