<?xml version="1.0" encoding="utf-8"?>
<!-- Generated by IcoMoon.io -->
<!DOCTYPE svg PUBLIC "-//W3C//DTD SVG 1.1//EN" "http://www.w3.org/Graphics/SVG/1.1/DTD/svg11.dtd">
<svg version="1.1" xmlns="http://www.w3.org/2000/svg" xmlns:xlink="http://www.w3.org/1999/xlink" width="32" height="32" viewBox="0 0 32 32">
<path fill="rgb(68, 68, 68)" d="M16.64 16l5.029 5.394-0.914 1.006-6.126-5.486-0.091-0.823 0.457-8.137h1.28l0.366 8.046zM27.886 16c0 6.583-5.303 11.886-11.886 11.886s-11.886-5.303-11.886-11.886c0-6.583 5.303-11.886 11.886-11.886s11.886 5.303 11.886 11.886v0zM25.874 16c0-5.486-4.389-9.874-9.874-9.874s-9.874 4.389-9.874 9.874c0 5.486 4.389 9.874 9.874 9.874s9.874-4.389 9.874-9.874v0z"></path>
</svg>
