<?xml version="1.0" encoding="utf-8"?>
<!-- Generated by IcoMoon.io -->
<!DOCTYPE svg PUBLIC "-//W3C//DTD SVG 1.1//EN" "http://www.w3.org/Graphics/SVG/1.1/DTD/svg11.dtd">
<svg version="1.1" xmlns="http://www.w3.org/2000/svg" xmlns:xlink="http://www.w3.org/1999/xlink" width="32" height="32" viewBox="0 0 32 32">
<path fill="rgb(68, 68, 68)" d="M26.976 6.256c-0.416-0.4-2.256-2.048-3.424-1.52-2.416 1.088-7.264 4.864-10.192 7.792-2.928 2.912-6.704 7.76-7.792 10.176-0.528 1.168 1.136 3.008 1.536 3.424 0.096 0.128 0.224 0.24 0.352 0.336l0.992 0.656c0.544 0.368 1.28 0.224 1.648-0.32l3.088-4.56c0.368-0.544 0.224-1.28-0.32-1.648l-1.216-0.832c1.6-2.096 6.816-7.328 8.96-8.96l0.832 1.216c0.368 0.544 1.104 0.688 1.648 0.32l4.576-3.088c0.544-0.368 0.688-1.104 0.32-1.648l-0.656-0.992c-0.096-0.128-0.224-0.24-0.352-0.352z"></path>
</svg>
