<?xml version="1.0" encoding="utf-8"?>
<!-- Generated by IcoMoon.io -->
<!DOCTYPE svg PUBLIC "-//W3C//DTD SVG 1.1//EN" "http://www.w3.org/Graphics/SVG/1.1/DTD/svg11.dtd">
<svg version="1.1" xmlns="http://www.w3.org/2000/svg" xmlns:xlink="http://www.w3.org/1999/xlink" width="25" height="32" viewBox="0 0 25 32">
<path fill="#000000" d="M0.089 20.571q-0.179-0.304 0-0.643l4.518-8q0.018 0 0-0.018l-2.875-4.982q-0.214-0.393-0.018-0.661 0.161-0.268 0.571-0.268h4.268q0.714 0 1.179 0.804l2.929 5.107q-0.179 0.321-4.589 8.143-0.482 0.821-1.161 0.821h-4.268q-0.375 0-0.554-0.304zM9.571 17.804q0.321-0.571 9.482-16.821 0.446-0.804 1.143-0.804h4.304q0.393 0 0.554 0.268 0.196 0.286 0 0.661l-9.429 16.679v0.018l6 10.982q0.196 0.357 0.018 0.661-0.179 0.268-0.571 0.268h-4.268q-0.75 0-1.179-0.804z"></path>
</svg>
